<mxfile host="app.diagrams.net" modified="2023-05-08T15:42:48.959Z" agent="Mozilla/5.0 (Macintosh; Intel Mac OS X 10_15_7) AppleWebKit/537.36 (KHTML, like Gecko) Chrome/113.0.0.0 Safari/537.36" etag="AxsC2LC_ya0wY79_0s3o" version="21.2.9" type="device">
  <diagram id="C5RBs43oDa-KdzZeNtuy" name="Page-1">
    <mxGraphModel dx="2714" dy="1434" grid="1" gridSize="10" guides="1" tooltips="1" connect="1" arrows="1" fold="1" page="1" pageScale="1" pageWidth="827" pageHeight="1169" math="0" shadow="0">
      <root>
        <mxCell id="WIyWlLk6GJQsqaUBKTNV-0" />
        <mxCell id="WIyWlLk6GJQsqaUBKTNV-1" parent="WIyWlLk6GJQsqaUBKTNV-0" />
        <mxCell id="gS6o8VqeqXPsHkakJWrJ-0" value="Start" style="strokeWidth=2;html=1;shape=mxgraph.flowchart.start_1;whiteSpace=wrap;fillColor=#f5f5f5;strokeColor=#666666;gradientColor=#b3b3b3;" parent="WIyWlLk6GJQsqaUBKTNV-1" vertex="1">
          <mxGeometry x="350" y="140" width="80" height="30" as="geometry" />
        </mxCell>
        <mxCell id="gS6o8VqeqXPsHkakJWrJ-11" value="End" style="strokeWidth=2;html=1;shape=mxgraph.flowchart.terminator;whiteSpace=wrap;fillColor=#f5f5f5;strokeColor=#666666;gradientColor=#b3b3b3;" parent="WIyWlLk6GJQsqaUBKTNV-1" vertex="1">
          <mxGeometry x="375" y="340" width="80" height="30" as="geometry" />
        </mxCell>
        <mxCell id="PcmkjXT54i3Zl9S-rJx3-0" value="Local&lt;br&gt;Experiment 1" style="rounded=1;whiteSpace=wrap;html=1;absoluteArcSize=1;arcSize=14;strokeWidth=2;fillColor=#f8cecc;gradientColor=#ea6b66;strokeColor=#b85450;" parent="WIyWlLk6GJQsqaUBKTNV-1" vertex="1">
          <mxGeometry x="250" y="200" width="90" height="40" as="geometry" />
        </mxCell>
        <mxCell id="PcmkjXT54i3Zl9S-rJx3-1" value="Local&lt;br&gt;Experiment 2" style="rounded=1;whiteSpace=wrap;html=1;absoluteArcSize=1;arcSize=14;strokeWidth=2;fillColor=#f8cecc;gradientColor=#ea6b66;strokeColor=#b85450;" parent="WIyWlLk6GJQsqaUBKTNV-1" vertex="1">
          <mxGeometry x="430" y="200" width="90" height="40" as="geometry" />
        </mxCell>
        <mxCell id="PcmkjXT54i3Zl9S-rJx3-2" value="Local&lt;br&gt;Experiment 3" style="rounded=1;whiteSpace=wrap;html=1;absoluteArcSize=1;arcSize=14;strokeWidth=2;fillColor=#f8cecc;gradientColor=#ea6b66;strokeColor=#b85450;" parent="WIyWlLk6GJQsqaUBKTNV-1" vertex="1">
          <mxGeometry x="250" y="270" width="90" height="40" as="geometry" />
        </mxCell>
        <mxCell id="PcmkjXT54i3Zl9S-rJx3-3" value="Local&lt;br&gt;Experiment 4" style="rounded=1;whiteSpace=wrap;html=1;absoluteArcSize=1;arcSize=14;strokeWidth=2;fillColor=#f8cecc;gradientColor=#ea6b66;strokeColor=#b85450;" parent="WIyWlLk6GJQsqaUBKTNV-1" vertex="1">
          <mxGeometry x="370" y="270" width="90" height="40" as="geometry" />
        </mxCell>
        <mxCell id="PcmkjXT54i3Zl9S-rJx3-4" value="Local&lt;br&gt;Experiment 5" style="rounded=1;whiteSpace=wrap;html=1;absoluteArcSize=1;arcSize=14;strokeWidth=2;fillColor=#f8cecc;gradientColor=#ea6b66;strokeColor=#b85450;" parent="WIyWlLk6GJQsqaUBKTNV-1" vertex="1">
          <mxGeometry x="490" y="270" width="90" height="40" as="geometry" />
        </mxCell>
        <mxCell id="PcmkjXT54i3Zl9S-rJx3-5" value="" style="endArrow=classic;html=1;rounded=0;exitX=0.145;exitY=0.855;exitDx=0;exitDy=0;exitPerimeter=0;entryX=0.466;entryY=0.026;entryDx=0;entryDy=0;entryPerimeter=0;" parent="WIyWlLk6GJQsqaUBKTNV-1" source="gS6o8VqeqXPsHkakJWrJ-0" target="PcmkjXT54i3Zl9S-rJx3-0" edge="1">
          <mxGeometry width="50" height="50" relative="1" as="geometry">
            <mxPoint x="400" y="390" as="sourcePoint" />
            <mxPoint x="450" y="340" as="targetPoint" />
          </mxGeometry>
        </mxCell>
        <mxCell id="PcmkjXT54i3Zl9S-rJx3-6" value="" style="endArrow=classic;html=1;rounded=0;exitX=0.855;exitY=0.855;exitDx=0;exitDy=0;exitPerimeter=0;entryX=0.5;entryY=0;entryDx=0;entryDy=0;" parent="WIyWlLk6GJQsqaUBKTNV-1" source="gS6o8VqeqXPsHkakJWrJ-0" target="PcmkjXT54i3Zl9S-rJx3-1" edge="1">
          <mxGeometry width="50" height="50" relative="1" as="geometry">
            <mxPoint x="400" y="180" as="sourcePoint" />
            <mxPoint x="301.94000000000005" y="210.7800000000001" as="targetPoint" />
          </mxGeometry>
        </mxCell>
        <mxCell id="PcmkjXT54i3Zl9S-rJx3-7" value="" style="endArrow=classic;html=1;rounded=0;exitX=0.5;exitY=1;exitDx=0;exitDy=0;entryX=0.5;entryY=0;entryDx=0;entryDy=0;" parent="WIyWlLk6GJQsqaUBKTNV-1" source="PcmkjXT54i3Zl9S-rJx3-0" target="PcmkjXT54i3Zl9S-rJx3-2" edge="1">
          <mxGeometry width="50" height="50" relative="1" as="geometry">
            <mxPoint x="295" y="260" as="sourcePoint" />
            <mxPoint x="301.94000000000005" y="230.7800000000001" as="targetPoint" />
          </mxGeometry>
        </mxCell>
        <mxCell id="PcmkjXT54i3Zl9S-rJx3-8" value="" style="endArrow=classic;html=1;rounded=0;exitX=0.486;exitY=1.017;exitDx=0;exitDy=0;entryX=0.533;entryY=-0.002;entryDx=0;entryDy=0;entryPerimeter=0;exitPerimeter=0;" parent="WIyWlLk6GJQsqaUBKTNV-1" source="PcmkjXT54i3Zl9S-rJx3-1" target="PcmkjXT54i3Zl9S-rJx3-4" edge="1">
          <mxGeometry width="50" height="50" relative="1" as="geometry">
            <mxPoint x="475" y="260" as="sourcePoint" />
            <mxPoint x="485" y="230" as="targetPoint" />
          </mxGeometry>
        </mxCell>
        <mxCell id="PcmkjXT54i3Zl9S-rJx3-9" value="" style="endArrow=classic;html=1;rounded=0;entryX=0.5;entryY=0;entryDx=0;entryDy=0;exitX=0.477;exitY=1.009;exitDx=0;exitDy=0;exitPerimeter=0;" parent="WIyWlLk6GJQsqaUBKTNV-1" source="PcmkjXT54i3Zl9S-rJx3-1" target="PcmkjXT54i3Zl9S-rJx3-3" edge="1">
          <mxGeometry width="50" height="50" relative="1" as="geometry">
            <mxPoint x="472.48" y="261" as="sourcePoint" />
            <mxPoint x="547.97" y="289.93999999999994" as="targetPoint" />
          </mxGeometry>
        </mxCell>
        <mxCell id="PcmkjXT54i3Zl9S-rJx3-10" value="" style="endArrow=classic;html=1;rounded=0;entryX=0.174;entryY=0.083;entryDx=0;entryDy=0;entryPerimeter=0;exitX=0.5;exitY=1;exitDx=0;exitDy=0;" parent="WIyWlLk6GJQsqaUBKTNV-1" source="PcmkjXT54i3Zl9S-rJx3-2" target="gS6o8VqeqXPsHkakJWrJ-11" edge="1">
          <mxGeometry width="50" height="50" relative="1" as="geometry">
            <mxPoint x="490" y="260" as="sourcePoint" />
            <mxPoint x="425" y="290" as="targetPoint" />
          </mxGeometry>
        </mxCell>
        <mxCell id="PcmkjXT54i3Zl9S-rJx3-11" value="" style="endArrow=classic;html=1;rounded=0;entryX=0.5;entryY=0;entryDx=0;entryDy=0;entryPerimeter=0;exitX=0.5;exitY=1;exitDx=0;exitDy=0;" parent="WIyWlLk6GJQsqaUBKTNV-1" source="PcmkjXT54i3Zl9S-rJx3-3" target="gS6o8VqeqXPsHkakJWrJ-11" edge="1">
          <mxGeometry width="50" height="50" relative="1" as="geometry">
            <mxPoint x="305" y="320" as="sourcePoint" />
            <mxPoint x="400" y="350" as="targetPoint" />
          </mxGeometry>
        </mxCell>
        <mxCell id="PcmkjXT54i3Zl9S-rJx3-12" value="" style="endArrow=classic;html=1;rounded=0;exitX=0.5;exitY=1;exitDx=0;exitDy=0;entryX=0.823;entryY=0.069;entryDx=0;entryDy=0;entryPerimeter=0;" parent="WIyWlLk6GJQsqaUBKTNV-1" source="PcmkjXT54i3Zl9S-rJx3-4" target="gS6o8VqeqXPsHkakJWrJ-11" edge="1">
          <mxGeometry width="50" height="50" relative="1" as="geometry">
            <mxPoint x="425" y="320" as="sourcePoint" />
            <mxPoint x="400" y="350" as="targetPoint" />
          </mxGeometry>
        </mxCell>
      </root>
    </mxGraphModel>
  </diagram>
</mxfile>
